<?xml version="1.0" encoding="UTF-8" standalone="no"?>
<!DOCTYPE svg PUBLIC "-//W3C//DTD SVG 1.1//EN"
 "http://www.w3.org/Graphics/SVG/1.1/DTD/svg11.dtd">
<!-- Generated by graphviz version 2.38.0 (20140413.2041)
 -->
<!-- Title: G Pages: 1 -->
<svg width="425pt" height="392pt"
 viewBox="0.00 0.00 425.00 392.00" xmlns="http://www.w3.org/2000/svg" xmlns:xlink="http://www.w3.org/1999/xlink">
<g id="graph0" class="graph" transform="scale(1 1) rotate(0) translate(4 388)">
<title>G</title>
<polygon fill="white" stroke="none" points="-4,4 -4,-388 421,-388 421,4 -4,4"/>
<!-- 0 -->
<g id="node1" class="node"><title>0</title>
<ellipse fill="none" stroke="black" cx="302" cy="-366" rx="34.394" ry="18"/>
<text text-anchor="middle" x="302" y="-362.3" font-family="Times,serif" font-size="14.00">ROOT</text>
</g>
<!-- 11 -->
<g id="node2" class="node"><title>11</title>
<ellipse fill="none" stroke="black" cx="302" cy="-279" rx="41.6928" ry="18"/>
<text text-anchor="start" x="278" y="-275.3" font-family="Times,serif" font-size="14.00">баксыра</text>
</g>
<!-- 11&#45;&gt;0 -->
<g id="edge1" class="edge"><title>11&#45;&gt;0</title>
<path fill="none" stroke="black" d="M302,-297.201C302,-308.837 302,-324.452 302,-337.763"/>
<polygon fill="black" stroke="black" points="298.5,-337.825 302,-347.825 305.5,-337.825 298.5,-337.825"/>
<text text-anchor="middle" x="313" y="-318.8" font-family="Times,serif" font-size="14.00">root</text>
</g>
<!-- 7 -->
<g id="node3" class="node"><title>7</title>
<ellipse fill="none" stroke="black" cx="209" cy="-192" rx="32.4942" ry="18"/>
<text text-anchor="start" x="192" y="-188.3" font-family="Times,serif" font-size="14.00">чорут</text>
</g>
<!-- 7&#45;&gt;11 -->
<g id="edge2" class="edge"><title>7&#45;&gt;11</title>
<path fill="none" stroke="black" d="M225.199,-207.806C239.6,-220.968 260.868,-240.407 277.374,-255.493"/>
<polygon fill="black" stroke="black" points="275.301,-258.339 285.044,-262.502 280.024,-253.172 275.301,-258.339"/>
<text text-anchor="middle" x="277" y="-231.8" font-family="Times,serif" font-size="14.00">advcl</text>
</g>
<!-- 2 -->
<g id="node4" class="node"><title>2</title>
<ellipse fill="none" stroke="black" cx="27" cy="-105" rx="27" ry="18"/>
<text text-anchor="start" x="16.5" y="-101.3" font-family="Times,serif" font-size="14.00">бис</text>
</g>
<!-- 2&#45;&gt;7 -->
<g id="edge3" class="edge"><title>2&#45;&gt;7</title>
<path fill="none" stroke="black" d="M47.3222,-117.293C66.566,-127.816 96.3945,-143.69 123,-156 139.356,-163.567 157.827,-171.2 173.448,-177.398"/>
<polygon fill="black" stroke="black" points="172.173,-180.658 182.761,-181.058 174.734,-174.143 172.173,-180.658"/>
<text text-anchor="middle" x="138" y="-144.8" font-family="Times,serif" font-size="14.00">nsubj</text>
</g>
<!-- 4 -->
<g id="node5" class="node"><title>4</title>
<ellipse fill="none" stroke="black" cx="116" cy="-105" rx="44.393" ry="18"/>
<text text-anchor="start" x="90" y="-101.3" font-family="Times,serif" font-size="14.00">соңгукчу</text>
</g>
<!-- 4&#45;&gt;7 -->
<g id="edge4" class="edge"><title>4&#45;&gt;7</title>
<path fill="none" stroke="black" d="M133.493,-121.988C148.143,-135.378 169.19,-154.614 185.343,-169.378"/>
<polygon fill="black" stroke="black" points="183.088,-172.058 192.831,-176.221 187.81,-166.891 183.088,-172.058"/>
<text text-anchor="middle" x="185" y="-144.8" font-family="Times,serif" font-size="14.00">nmod</text>
</g>
<!-- 3 -->
<g id="node6" class="node"><title>3</title>
<ellipse fill="none" stroke="black" cx="74" cy="-18" rx="38.1938" ry="18"/>
<text text-anchor="start" x="52.5" y="-14.3" font-family="Times,serif" font-size="14.00">кожуун</text>
</g>
<!-- 3&#45;&gt;4 -->
<g id="edge5" class="edge"><title>3&#45;&gt;4</title>
<path fill="none" stroke="black" d="M71.8937,-36.015C71.3893,-46.0842 72.0861,-58.8188 77,-69 79.3133,-73.7931 82.6059,-78.2232 86.3095,-82.206"/>
<polygon fill="black" stroke="black" points="84.1219,-84.9549 93.7885,-89.2916 88.9362,-79.8733 84.1219,-84.9549"/>
<text text-anchor="middle" x="107" y="-57.8" font-family="Times,serif" font-size="14.00">nmod:poss</text>
</g>
<!-- 5 -->
<g id="node7" class="node"><title>5</title>
<ellipse fill="none" stroke="black" cx="159" cy="-18" rx="28.6953" ry="18"/>
<text text-anchor="start" x="145" y="-14.3" font-family="Times,serif" font-size="14.00">биле</text>
</g>
<!-- 5&#45;&gt;4 -->
<g id="edge6" class="edge"><title>5&#45;&gt;4</title>
<path fill="none" stroke="black" d="M152.184,-35.9139C148.078,-45.7185 142.578,-58.2185 137,-69 135.355,-72.1803 133.54,-75.4688 131.688,-78.6988"/>
<polygon fill="black" stroke="black" points="128.556,-77.1198 126.477,-87.5087 134.581,-80.6838 128.556,-77.1198"/>
<text text-anchor="middle" x="157" y="-57.8" font-family="Times,serif" font-size="14.00">case</text>
</g>
<!-- 6 -->
<g id="node8" class="node"><title>6</title>
<ellipse fill="none" stroke="black" cx="209" cy="-105" rx="30.5947" ry="18"/>
<text text-anchor="start" x="193.5" y="-101.3" font-family="Times,serif" font-size="14.00">ажыл</text>
</g>
<!-- 6&#45;&gt;7 -->
<g id="edge7" class="edge"><title>6&#45;&gt;7</title>
<path fill="none" stroke="black" d="M209,-123.201C209,-134.837 209,-150.452 209,-163.763"/>
<polygon fill="black" stroke="black" points="205.5,-163.825 209,-173.825 212.5,-163.825 205.5,-163.825"/>
<text text-anchor="middle" x="221.5" y="-144.8" font-family="Times,serif" font-size="14.00">dobj</text>
</g>
<!-- 8 -->
<g id="node9" class="node"><title>8</title>
<ellipse fill="none" stroke="black" cx="285" cy="-105" rx="27" ry="18"/>
<text text-anchor="start" x="275" y="-101.3" font-family="Times,serif" font-size="14.00">бер</text>
</g>
<!-- 8&#45;&gt;7 -->
<g id="edge8" class="edge"><title>8&#45;&gt;7</title>
<path fill="none" stroke="black" d="M271.762,-120.806C260.207,-133.729 243.243,-152.702 229.864,-167.666"/>
<polygon fill="black" stroke="black" points="226.913,-165.715 222.857,-175.502 232.131,-170.381 226.913,-165.715"/>
<text text-anchor="middle" x="262" y="-144.8" font-family="Times,serif" font-size="14.00">aux</text>
</g>
<!-- 9 -->
<g id="node10" class="node"><title>9</title>
<ellipse fill="none" stroke="black" cx="357" cy="-105" rx="27" ry="18"/>
<text text-anchor="start" x="355" y="-101.3" font-family="Times,serif" font-size="14.00">,</text>
</g>
<!-- 9&#45;&gt;7 -->
<g id="edge9" class="edge"><title>9&#45;&gt;7</title>
<path fill="none" stroke="black" d="M338.245,-118.107C321.974,-128.483 297.69,-143.661 276,-156 264.86,-162.337 252.47,-168.932 241.404,-174.667"/>
<polygon fill="black" stroke="black" points="239.769,-171.572 232.476,-179.257 242.97,-177.797 239.769,-171.572"/>
<text text-anchor="middle" x="316.5" y="-144.8" font-family="Times,serif" font-size="14.00">punct</text>
</g>
<!-- 10 -->
<g id="node11" class="node"><title>10</title>
<ellipse fill="none" stroke="black" cx="302" cy="-192" rx="42.7926" ry="18"/>
<text text-anchor="start" x="277" y="-188.3" font-family="Times,serif" font-size="14.00">көргүзүг</text>
</g>
<!-- 10&#45;&gt;11 -->
<g id="edge10" class="edge"><title>10&#45;&gt;11</title>
<path fill="none" stroke="black" d="M302,-210.201C302,-221.837 302,-237.452 302,-250.763"/>
<polygon fill="black" stroke="black" points="298.5,-250.825 302,-260.825 305.5,-250.825 298.5,-250.825"/>
<text text-anchor="middle" x="317" y="-231.8" font-family="Times,serif" font-size="14.00">nsubj</text>
</g>
<!-- 12 -->
<g id="node12" class="node"><title>12</title>
<ellipse fill="none" stroke="black" cx="390" cy="-192" rx="27" ry="18"/>
<text text-anchor="start" x="388" y="-188.3" font-family="Times,serif" font-size="14.00">.</text>
</g>
<!-- 12&#45;&gt;11 -->
<g id="edge11" class="edge"><title>12&#45;&gt;11</title>
<path fill="none" stroke="black" d="M375.072,-207.419C361.503,-220.526 341.256,-240.082 325.514,-255.288"/>
<polygon fill="black" stroke="black" points="322.958,-252.891 318.197,-262.356 327.821,-257.926 322.958,-252.891"/>
<text text-anchor="middle" x="367.5" y="-231.8" font-family="Times,serif" font-size="14.00">punct</text>
</g>
</g>
</svg>
