<?xml version="1.0" encoding="UTF-8" standalone="no"?>
<!-- Created with Inkscape (http://www.inkscape.org/) -->

<svg
   xmlns:dc="http://purl.org/dc/elements/1.1/"
   xmlns:cc="http://creativecommons.org/ns#"
   xmlns:rdf="http://www.w3.org/1999/02/22-rdf-syntax-ns#"
   xmlns:svg="http://www.w3.org/2000/svg"
   xmlns="http://www.w3.org/2000/svg"
   xmlns:sodipodi="http://sodipodi.sourceforge.net/DTD/sodipodi-0.dtd"
   xmlns:inkscape="http://www.inkscape.org/namespaces/inkscape"
   width="39.228882mm"
   height="39.228886mm"
   viewBox="0 0 138.99998 138.99999"
   id="svg4185"
   version="1.1"
   inkscape:version="0.91 r13725"
   sodipodi:docname="soranif.svg">
  <defs
     id="defs4187" />
  <sodipodi:namedview
     id="base"
     pagecolor="#ffffff"
     bordercolor="#666666"
     borderopacity="1.0"
     inkscape:pageopacity="0.0"
     inkscape:pageshadow="2"
     inkscape:zoom="5.9280583"
     inkscape:cx="69.499987"
     inkscape:cy="69.499992"
     inkscape:document-units="px"
     inkscape:current-layer="layer1"
     showgrid="false"
     fit-margin-top="0"
     fit-margin-left="0"
     fit-margin-right="0"
     fit-margin-bottom="0"
     inkscape:showpageshadow="false"
     showborder="false"
     inkscape:window-width="1920"
     inkscape:window-height="1031"
     inkscape:window-x="0"
     inkscape:window-y="0"
     inkscape:window-maximized="1" />
  <metadata
     id="metadata4190">
    <rdf:RDF>
      <cc:Work
         rdf:about="">
        <dc:format>image/svg+xml</dc:format>
        <dc:type
           rdf:resource="http://purl.org/dc/dcmitype/StillImage" />
        <dc:title></dc:title>
      </cc:Work>
    </rdf:RDF>
  </metadata>
  <g
     inkscape:label="Layer 1"
     inkscape:groupmode="layer"
     id="layer1"
     transform="translate(1063.7857,-422.86221)">
    <path
       style="fill:#07408e;fill-opacity:1"
       d="m -1063.7857,492.3622 0,-69.5 69.49999,0 69.5,0 0,69.5 0,69.5 -69.5,0 -69.49999,0 z m 58.2258,42.50374 c 1.8008,-1.09795 4.6242,-2.00484 6.27419,-2.01531 1.65,-0.0105 2.55,-0.34966 2,-0.75374 -2.35063,-1.72698 -1.38028,-5.17503 3.18729,-11.32584 2.61755,-3.52487 4.77123,-6.8117 4.78595,-7.30407 0.0147,-0.49237 2.27676,-1.5363 5.02676,-2.31983 6.72155,-1.9151 8.03881,-3.70633 5.67392,-7.71548 -2.36656,-4.01199 -3.22144,-7.42206 -2.04321,-8.15024 0.51861,-0.32053 2.74022,0.35402 4.93691,1.499 4.74658,2.47405 5.93238,2.59034 5.93238,0.58177 0,-0.825 0.50249,-1.5 1.11663,-1.5 0.61415,0 0.88888,-0.87093 0.61051,-1.93541 -0.29261,-1.11897 0.08,-2.16035 0.88337,-2.46862 4.00699,-1.53763 -1.39326,-5.1003 -9.32608,-6.15262 -6.32399,-0.83891 -8.49076,-2.06248 -6.12666,-3.45971 5.90656,-3.49091 11.6112,-9.07846 12.18187,-11.93183 0.51169,-2.55846 1.56081,-3.561 5.76452,-5.50861 2.82645,-1.30951 8.90928,-3.42124 13.51742,-4.69273 4.60813,-1.2715 8.37842,-2.60552 8.37842,-2.96451 0,-1.09994 -4.12473,-1.80497 -7.39869,-1.26465 -2.47004,0.40765 -2.76092,0.29348 -1.42905,-0.56092 0.91974,-0.59001 5.1466,-1.36644 9.39303,-1.72539 6.99062,-0.59093 7.54175,-0.78862 5.82774,-2.09044 -1.45971,-1.10868 -4.18207,-1.33156 -11.89303,-0.97368 -9.64177,0.44749 -9.82088,0.41816 -5,-0.81876 2.75,-0.70559 7.65295,-1.81645 10.89545,-2.46859 6.48201,-1.30368 6.07996,-2.94101 -0.72884,-2.96821 -3.41057,-0.0136 -16.63155,2.88279 -21.25205,4.65584 -1.10075,0.4224 -1.5023,0.27984 -1.09015,-0.38704 0.35888,-0.58068 3.57008,-1.84552 7.13602,-2.81078 3.64947,-0.98786 6.21743,-2.18554 5.87479,-2.73996 -1.51591,-2.45279 -18.71207,2.0074 -25.90153,6.71812 -1.2128,0.79465 -3.19666,3.49315 -4.40859,5.99666 -1.21193,2.50352 -2.72587,4.56939 -3.3643,4.59084 -0.63844,0.0214 -2.63291,2.0403 -4.43217,4.48632 -3.69301,5.02051 -6.87916,6.27629 -11.28932,4.44954 -3.4293,-1.42045 -8.9393,-7.61384 -8.9393,-10.04797 0,-1.37163 1.3038,-1.60295 8.5796,-1.52216 8.18211,0.0909 8.69017,-0.0328 10.96355,-2.66806 1.31111,-1.51983 2.1164,-3.31983 1.78953,-4 -0.32687,-0.68016 -3.29516,-3.71167 -6.59619,-6.73667 l -6.00189,-5.5 3.088,5 c 2.72843,4.41782 2.93033,5.23288 1.734,7 -1.17379,1.73384 -2.28435,1.96154 -8.3448,1.71094 -7.7957,-0.32234 -10.2118,0.96935 -10.2118,5.45936 0,3.25719 2.7125,8.95134 5.6758,11.91458 4.9072,4.90723 2.9372,5.82583 -12.8167,5.9764 -11.6789,0.11161 -12.977,0.31779 -17.0575,2.70912 -4.7326,2.77349 -13.3766,11.48792 -12.3818,12.48271 0.3306,0.3306 2.0589,-0.71516 3.8406,-2.32391 l 3.2396,-2.925 -3.0989,3.4979 c -4.7383,5.34845 -6.4017,8.20214 -6.3947,10.97041 0.01,2.34141 0.3063,2.17778 4.0779,-2.22251 5.6225,-6.55976 6.8985,-5.96877 1.9707,0.9128 -3.746,5.23124 -5.3019,10.3372 -3.15,10.3372 0.4977,0 2.0917,-2.025 3.5421,-4.5 3.4041,-5.80855 4.8637,-5.76836 2.8713,0.0791 -1.1536,3.38535 -1.2677,4.87163 -0.438,5.70136 0.8297,0.82972 1.5591,0.0104 2.7978,-3.14309 1.3768,-3.50504 2.0475,-4.17201 3.7623,-3.74162 1.6282,0.40865 2.5233,-0.28349 4.0731,-3.1494 1.0925,-2.02024 3.9099,-5.02011 6.2608,-6.66637 l 4.2745,-2.99321 4.4584,1.65239 c 4.0404,1.4975 4.6046,1.50607 6.0194,0.0914 1.4147,-1.41473 1.7482,-1.39167 3.5577,0.24594 1.7957,1.62511 2.5845,1.68558 7.8366,0.60079 8.69495,-1.79592 9.07899,-1.44603 9.07899,8.27151 l 0,8.23472 -4.25,1.26804 c -9.61609,2.86909 -11.27189,4.90493 -8.17289,10.04854 l 1.5063,2.49999 -0.6859,-2.49215 c -0.636,-2.31041 -0.5542,-2.38334 1.122,-1 1.6826,1.38873 1.7273,1.34076 0.6442,-0.6921 -1.5812,-2.96781 -1.4872,-3.31575 0.8953,-3.31575 1.1325,0 1.81,-0.40284 1.5057,-0.89521 -0.3043,-0.49237 0.156,-1.16737 1.0228,-1.5 2.23663,-0.85827 6.41249,-0.75009 6.41249,0.16612 0,0.424 -2.03432,4.24615 -4.52071,8.49366 -3.82738,6.53828 -5.28438,8.10972 -9.49998,10.24593 -5.3483,2.71016 -6.6591,4.07866 -2.3304,2.4329 2.3223,-0.88294 2.4921,-0.81824 1.3775,0.52475 -1.7188,2.07107 -0.7218,1.92635 3.1994,-0.46441 z m 16.41463,-27.49835 c -0.94624,-2.46586 0.6194,-10.50539 2.04585,-10.50539 1.56261,0 5.74716,8.48966 4.87785,9.89624 -0.85598,1.385 -6.43753,1.87607 -6.9237,0.60915 z"
       id="path4138"
       inkscape:connector-curvature="0"
       sodipodi:nodetypes="cccccccccscsscssssssscssssssssssssssscsssssssssssscssssssssscsssssssssssscssssscsscssssssssssssssss" />
    <text
       xml:space="preserve"
       style="font-style:normal;font-variant:normal;font-weight:normal;font-stretch:normal;font-size:15px;line-height:80.00000119%;font-family:'DejaVu Serif';-inkscape-font-specification:'DejaVu Serif, Normal';text-align:end;letter-spacing:0px;word-spacing:0px;writing-mode:lr-tb;text-anchor:end;fill:#ffffff;fill-opacity:1;stroke:none;stroke-width:1px;stroke-linecap:butt;stroke-linejoin:miter;stroke-opacity:1"
       x="-928.54852"
       y="545.27521"
       id="text4167"
       sodipodi:linespacing="80.000001%"><tspan
         sodipodi:role="line"
         id="tspan4169"
         x="-928.54852"
         y="545.27521"
         style="font-style:normal;font-variant:normal;font-weight:normal;font-stretch:normal;font-size:11.875px;line-height:80.00000119%;font-family:'DejaVu Serif';-inkscape-font-specification:'DejaVu Serif, Normal';text-align:end;writing-mode:lr-tb;text-anchor:end">СО РАН</tspan><tspan
         sodipodi:role="line"
         x="-928.54852"
         y="554.77521"
         id="tspan4171"
         style="font-style:normal;font-variant:normal;font-weight:normal;font-stretch:normal;font-size:11.875px;line-height:80.00000119%;font-family:'DejaVu Serif';-inkscape-font-specification:'DejaVu Serif, Normal';text-align:end;writing-mode:lr-tb;text-anchor:end">Институт филологии</tspan></text>
  </g>
</svg>
